HIERARCHY
ROOT hips
{
  OFFSET -0.00735851563513279 12.18665635585785 0.12248523347079754
  CHANNELS 6 Xposition Yposition Zposition Yrotation Xrotation Zrotation
  JOINT spine
  {
    OFFSET 1.0244548320770264e-7 0.5955291986465454 0
    CHANNELS 3 Yrotation Xrotation Zrotation
    JOINT chest
    {
      OFFSET 0 1.2719063864449713 0
      CHANNELS 3 Yrotation Xrotation Zrotation
      JOINT upperChest
      {
        OFFSET 0 1.490802666915459 0
        CHANNELS 3 Yrotation Xrotation Zrotation
        JOINT neck
        {
          OFFSET 0 1.3131953345263365 0
          CHANNELS 3 Yrotation Xrotation Zrotation
          JOINT head
          {
            OFFSET 0 0.8653679716847534 0
            CHANNELS 3 Yrotation Xrotation Zrotation
            JOINT leftEye
            {
              OFFSET 0.20629723300226033 0.6721053123474121 0.3036841657012701
              CHANNELS 3 Yrotation Xrotation Zrotation
              End Site
              {
                OFFSET 0.20629723300226033 0.6721053123474121 0.3036841657012701
              }
            }
            JOINT rightEye
            {
              OFFSET -0.20629652100615203 0.6721066236495972 0.30368443205952644
              CHANNELS 3 Yrotation Xrotation Zrotation
              End Site
              {
                OFFSET -0.20629652100615203 0.6721066236495972 0.30368443205952644
              }
            }
          }
        }
        JOINT leftShoulder
        {
          OFFSET 0.24624172446783632 0.959903359413147 0
          CHANNELS 3 Yrotation Xrotation Zrotation
          JOINT leftUpperArm
          {
            OFFSET 0.9650355761446514 0 0
            CHANNELS 3 Yrotation Xrotation Zrotation
            JOINT leftLowerArm
            {
              OFFSET 2.4419134471639827 0 0
              CHANNELS 3 Yrotation Xrotation Zrotation
              JOINT leftHand
              {
                OFFSET 2.3874557408809456 0 0
                CHANNELS 3 Yrotation Xrotation Zrotation
                JOINT leftIndexProximal
                {
                  OFFSET 0.7029628753662109 0.06118142604827881 0.23586585000157356
                  CHANNELS 3 Yrotation Xrotation Zrotation
                  JOINT leftIndexIntermediate
                  {
                    OFFSET 0.36102771759033203 -0.001475214958190918 0.056637559086084366
                    CHANNELS 3 Yrotation Xrotation Zrotation
                    JOINT leftIndexDistal
                    {
                      OFFSET 0.22344785928726196 -0.007408857345581055 0.02531452476978302
                      CHANNELS 3 Yrotation Xrotation Zrotation
                      End Site
                      {
                        OFFSET 0.22344785928726196 -0.007408857345581055 0.02531452476978302
                      }
                    }
                  }
                }
                JOINT leftLittleProximal
                {
                  OFFSET 0.6958752870559692 0.034375786781311035 -0.29472956992685795
                  CHANNELS 3 Yrotation Xrotation Zrotation
                  JOINT leftLittleIntermediate
                  {
                    OFFSET 0.34538060426712036 -0.0030041933059692383 0.00024324655532836914
                    CHANNELS 3 Yrotation Xrotation Zrotation
                    JOINT leftLittleDistal
                    {
                      OFFSET 0.19865047931671143 0.00746917724609375 -0.010377676226198673
                      CHANNELS 3 Yrotation Xrotation Zrotation
                      End Site
                      {
                        OFFSET 0.19865047931671143 0.00746917724609375 -0.010377676226198673
                      }
                    }
                  }
                }
                JOINT leftMiddleProximal
                {
                  OFFSET 0.7272291779518127 0.09209799766540527 0.05257739871740341
                  CHANNELS 3 Yrotation Xrotation Zrotation
                  JOINT leftMiddleIntermediate
                  {
                    OFFSET 0.40590834617614746 -0.014838695526123047 0.026817932724952698
                    CHANNELS 3 Yrotation Xrotation Zrotation
                    JOINT leftMiddleDistal
                    {
                      OFFSET 0.2495119571685791 -0.026458144187927246 0.010310646146535873
                      CHANNELS 3 Yrotation Xrotation Zrotation
                      End Site
                      {
                        OFFSET 0.2495119571685791 -0.026458144187927246 0.010310646146535873
                      }
                    }
                  }
                }
                JOINT leftRingProximal
                {
                  OFFSET 0.7334893345832825 0.09136629104614258 -0.1205735495314002
                  CHANNELS 3 Yrotation Xrotation Zrotation
                  JOINT leftRingIntermediate
                  {
                    OFFSET 0.3775520920753479 -0.005917906761169434 0.001896639820188284
                    CHANNELS 3 Yrotation Xrotation Zrotation
                    JOINT leftRingDistal
                    {
                      OFFSET 0.2177620530128479 0.007703900337219238 0.0027355607599020004
                      CHANNELS 3 Yrotation Xrotation Zrotation
                      End Site
                      {
                        OFFSET 0.2177620530128479 0.007703900337219238 0.0027355607599020004
                      }
                    }
                  }
                }
                JOINT leftThumbProximal
                {
                  OFFSET 0.02235114574432373 -0.07603192329406738 0.1950724683701992
                  CHANNELS 3 Yrotation Xrotation Zrotation
                  JOINT leftThumbIntermediate
                  {
                    OFFSET 0.3551589846611023 -0.02970755100250244 0.36741212010383606
                    CHANNELS 3 Yrotation Xrotation Zrotation
                    JOINT leftThumbDistal
                    {
                      OFFSET 0.23456048965454102 -0.016631245613098145 0.2093813568353653
                      CHANNELS 3 Yrotation Xrotation Zrotation
                      End Site
                      {
                        OFFSET 0.23456048965454102 -0.016631245613098145 0.2093813568353653
                      }
                    }
                  }
                }
              }
            }
          }
        }
        JOINT rightShoulder
        {
          OFFSET -0.24624088185373694 0.9600239992141724 0
          CHANNELS 3 Yrotation Xrotation Zrotation
          JOINT rightUpperArm
          {
            OFFSET -0.9650300767908009 0 0
            CHANNELS 3 Yrotation Xrotation Zrotation
            JOINT rightLowerArm
            {
              OFFSET -2.4420125187833426 0 0
              CHANNELS 3 Yrotation Xrotation Zrotation
              JOINT rightHand
              {
                OFFSET -2.3874255620910265 0 0
                CHANNELS 3 Yrotation Xrotation Zrotation
                JOINT rightIndexProximal
                {
                  OFFSET -0.7029609084129333 0.06117355823516846 0.23587234504520893
                  CHANNELS 3 Yrotation Xrotation Zrotation
                  JOINT rightIndexIntermediate
                  {
                    OFFSET -0.3610270619392395 -0.0014804601669311523 0.05664427950978279
                    CHANNELS 3 Yrotation Xrotation Zrotation
                    JOINT rightIndexDistal
                    {
                      OFFSET -0.2234485149383545 -0.0074127912521362305 0.025317884981632233
                      CHANNELS 3 Yrotation Xrotation Zrotation
                      End Site
                      {
                        OFFSET -0.2234485149383545 -0.0074127912521362305 0.025317884981632233
                      }
                    }
                  }
                }
                JOINT rightLittleProximal
                {
                  OFFSET -0.6958779096603394 0.034366607666015625 -0.29472311586141586
                  CHANNELS 3 Yrotation Xrotation Zrotation
                  JOINT rightLittleIntermediate
                  {
                    OFFSET -0.3453786373138428 -0.003008127212524414 0.00025422871112823486
                    CHANNELS 3 Yrotation Xrotation Zrotation
                    JOINT rightLittleDistal
                    {
                      OFFSET -0.19865179061889648 0.00746917724609375 -0.010371447540819645
                      CHANNELS 3 Yrotation Xrotation Zrotation
                      End Site
                      {
                        OFFSET -0.19865179061889648 0.00746917724609375 -0.010371447540819645
                      }
                    }
                  }
                }
                JOINT rightMiddleProximal
                {
                  OFFSET -0.7272304892539978 0.09209012985229492 0.05258418060839176
                  CHANNELS 3 Yrotation Xrotation Zrotation
                  JOINT rightMiddleIntermediate
                  {
                    OFFSET -0.4059063792228699 -0.014843940734863281 0.026821313425898552
                    CHANNELS 3 Yrotation Xrotation Zrotation
                    JOINT rightMiddleDistal
                    {
                      OFFSET -0.24951326847076416 -0.026460766792297363 0.010313207283616066
                      CHANNELS 3 Yrotation Xrotation Zrotation
                      End Site
                      {
                        OFFSET -0.24951326847076416 -0.026460766792297363 0.010313207283616066
                      }
                    }
                  }
                }
                JOINT rightRingProximal
                {
                  OFFSET -0.7334906458854675 0.09135580062866211 -0.12056719791144133
                  CHANNELS 3 Yrotation Xrotation Zrotation
                  JOINT rightRingIntermediate
                  {
                    OFFSET -0.37755340337753296 -0.005923151969909668 0.0019026175141334534
                    CHANNELS 3 Yrotation Xrotation Zrotation
                    JOINT rightRingDistal
                    {
                      OFFSET -0.21775943040847778 0.007701277732849121 0.0027383523993194103
                      CHANNELS 3 Yrotation Xrotation Zrotation
                      End Site
                      {
                        OFFSET -0.21775943040847778 0.007701277732849121 0.0027383523993194103
                      }
                    }
                  }
                }
                JOINT rightThumbProximal
                {
                  OFFSET -0.022347867488861084 -0.07603061199188232 0.19507363624870777
                  CHANNELS 3 Yrotation Xrotation Zrotation
                  JOINT rightThumbIntermediate
                  {
                    OFFSET -0.3550455570220947 -0.029461026191711426 0.36754218488931656
                    CHANNELS 3 Yrotation Xrotation Zrotation
                    JOINT rightThumbDistal
                    {
                      OFFSET -0.23451131582260132 -0.016489624977111816 0.20944765955209732
                      CHANNELS 3 Yrotation Xrotation Zrotation
                      End Site
                      {
                        OFFSET -0.23451131582260132 -0.016489624977111816 0.20944765955209732
                      }
                    }
                  }
                }
              }
            }
          }
        }
      }
    }
  }
  JOINT leftUpperLeg
  {
    OFFSET 0.8483456987887621 -0.42556869983673096 0
    CHANNELS 3 Yrotation Xrotation Zrotation
    JOINT leftLowerLeg
    {
      OFFSET 0 -4.6702112872869534 0
      CHANNELS 3 Yrotation Xrotation Zrotation
      JOINT leftFoot
      {
        OFFSET -0.13096565008163452 -5.202569782733917 -0.2985280640423298
        CHANNELS 3 Yrotation Xrotation Zrotation
        JOINT leftToes
        {
          OFFSET 0.01423943042755127 -0.7568342834711075 1.213271364569664
          CHANNELS 3 Yrotation Xrotation Zrotation
          End Site
          {
            OFFSET 0.01423943042755127 -0.7568342834711075 1.213271364569664
          }
        }
      }
    }
  }
  JOINT rightUpperLeg
  {
    OFFSET -0.8483468051999807 -0.42556607723236084 0
    CHANNELS 3 Yrotation Xrotation Zrotation
    JOINT rightLowerLeg
    {
      OFFSET 0 -4.670219469177788 0
      CHANNELS 3 Yrotation Xrotation Zrotation
      JOINT rightFoot
      {
        OFFSET 0.13097601756453514 -5.202573716640472 -0.29853164963424206
        CHANNELS 3 Yrotation Xrotation Zrotation
        JOINT rightToes
        {
          OFFSET -0.014232628047466278 -0.7568355947732925 1.213272675871849
          CHANNELS 3 Yrotation Xrotation Zrotation
          End Site
          {
            OFFSET -0.014232628047466278 -0.7568355947732925 1.213272675871849
          }
        }
      }
    }
  }
}
MOTION
Frames: 8
Frame Time: 0.03333333333333333
0 11.682712981546562 0 0 0 0 0 -4.610651315171937 0 0 3.0831277533083026 0 0 0 0 0 1.5275236235667615 0 0 0 0 0 0 0 0 0 0 0 1.5275236235667615 0 0 0 0 0 0 0 0 0 0 0 0 0 0 0 0 0 0 0 0 0 0 0 0 0 0 0 0 0 0 0 0 0 0 0 0 0 0 0 0 0 0 0 0 0 0 0 0 0 0 0 0 0 0 0 0 1.5275236235667615 0 0 0 0 0 0 0 0 0 0 0 0 0 0 0 0 0 0 0 0 0 0 0 0 0 0 0 0 0 0 0 0 0 0 0 0 0 0 0 0 0 0 0 0 0 0 0 0 0 0 0 0 0 0 0 0 0 -5.826343164929014 -0.3712483961610101 -3.6333298826370974 5.838118207697276 0 0 0 0 0 0 0 0 5.826343164929014 0.3712483961610101 -3.6333298826370974 -5.838118207697276 0 0 0 0 0 0
0 7.787669160112128 0 0.02549598109559179 -2.6887237888106843 0.38039333229641986 -0.4451181349456044 -1.2684819156453262 2.3511989239881306 0.891670989724758 5.731109865360714 -7.714869283948471 0 0 0 2.084816721686495 5.851591234845593 -1.50757041720701 3.7626261011958197 -1.6859733645001467 -4.396842681870792 0 0 0 0 0 0 -4.0354918531475 2.009936684958294 9.823639453476213 -15.420239820209442 15.169534120533159 5.707239550112054 -1.5879981061195974 -0.3013528040405599 5.32668994121841 2.647292433447692 0.015301216410660517 3.6622683104639764 0 0 0 0 0 0 0 0 0 0 0 0 0 0 0 0 0 0 0 0 0 0 0 0 0 0 0 0 0 0 0 0 0 0 0 0 0 0 0 0 0 0 0 0 0 1.5250698210569094 5.922543494251751 -11.960380647110266 18.03645128702296 -2.5013549189735387 3.497801832112257 22.879290817029258 12.501410038272567 -2.532831819849596 2.016299844573256 0.4569065585708106 0.9161674968473522 0 0 0 0 0 0 0 0 0 0 0 0 0 0 0 0 0 0 0 0 0 0 0 0 0 0 0 0 0 0 0 0 0 0 0 0 0 0 0 0 0 0 0 0 0 2.8001580468058047 0.3556113064634916 -1.1984991597007044 -1.829509974080189 2.3556126781577915 3.933275094563937 3.9107786801283164 -1.813803752649576 -1.6781856426412494 0 0 0 0.5297863227274572 -1.6854026900172523 4.1135673213630835 3.1791806644775993 1.1981448705983215 -6.878063906191096 1.2605760970842013 3.250899129403915 0.6190540043226463 0 0 0
0 3.8926253386776946 0 0.03315296653461775 -5.377557556585004 0.7608463140259368 -0.8857505218964717 2.0875181072202635 4.657177496872658 1.4212105972649667 8.474461713317112 -15.432779358914575 0 0 0 4.075939869126925 10.226395366809028 -2.8707269223319636 7.647660541402982 -3.074883766940113 -8.899739206449926 0 0 0 0 0 0 -7.932098717013674 3.171968234388133 19.595664821225427 -30.98803949535216 31.29229707240663 7.245974320031872 -3.197152254727197 -0.45388426448198105 10.659809674209288 5.290161417621571 -0.13848124641325021 7.32134126205066 0 0 0 0 0 0 0 0 0 0 0 0 0 0 0 0 0 0 0 0 0 0 0 0 0 0 0 0 0 0 0 0 0 0 0 0 0 0 0 0 0 0 0 0 0 2.108724455476741 10.53747426551802 -23.936302881638785 35.960231476279304 -5.959945449321244 6.058951686026916 46.943622796070095 24.973969194625592 0.27520684593553923 4.039826942137547 0.8812370423173237 1.8479264552034484 0 0 0 0 0 0 0 0 0 0 0 0 0 0 0 0 0 0 0 0 0 0 0 0 0 0 0 0 0 0 0 0 0 0 0 0 0 0 0 0 0 0 0 0 0 5.619952732735475 0.48379877349528566 3.4413130862493055 -3.5019579532000895 8.290365401597674 1.8567763271405962 7.878597030925621 -3.5080512927296787 -3.478741326590116 0 0 0 1.1104718586265627 -3.3541313065778278 2.383052269292807 5.913792573816673 6.074201539035962 -7.684656473028636 2.562500887470265 6.487155321128863 1.312889098099566 0 0 0
0 -0.002418482756739323 0 0.0228263155993706 -8.066382831128486 1.1430471027178817 -1.325665957258795 5.455808285340175 6.91970771952141 1.574863356685968 11.263571513378281 -23.189844378574367 0 0 0 5.993056412701631 14.64465736660094 -4.099389073620066 11.635171638679022 -4.151531342067579 -13.492606285058057 0 0 0 0 0 0 -11.581535262702868 4.975367661687498 29.28454025889839 -49.99039906996694 47.11689731319518 2.8259556104680814 -4.813533358489477 -0.4561525991466994 15.995159304253816 7.917891983474211 -0.46039604326542694 10.969520608398625 0 0 0 0 0 0 0 0 0 0 0 0 0 0 0 0 0 0 0 0 0 0 0 0 0 0 0 0 0 0 0 0 0 0 0 0 0 0 0 0 0 0 0 0 0 1.6991302865225648 15.17123255309309 -36.08704205896827 53.88097663480049 -10.036461451241372 7.438560457099401 74.64991758075686 35.05316961567869 9.321315694986566 6.070257486621974 1.272347258748769 2.7942146554947445 0 0 0 0 0 0 0 0 0 0 0 0 0 0 0 0 0 0 0 0 0 0 0 0 0 0 0 0 0 0 0 0 0 0 0 0 0 0 0 0 0 0 0 0 0 8.440878448589777 0.38341160856586437 8.081817817666963 -5.429184726100616 14.157373689176541 -0.4399971052074232 11.906304356964919 -5.072784423820454 -5.396468650334559 0 0 0 1.7427000961936825 -5.0044686922935755 0.631988461204667 8.613602273944487 10.9829099085245 -8.264042352455734 3.914541292106674 9.706540535343972 2.0866845513255394 0 0 0
-0.02284143478541322 -0.05401501816943346 0.04057715392968052 -0.07029946935217031 -7.8364225413315935 2.7240555250852516 -1.8902365849213953 5.788848829199204 5.953379341584188 1.5780538907320194 9.825149445515226 -25.256080495049744 0 0 0 7.550114783299719 15.392891323599398 -3.8816945186902574 12.780352204848587 -3.902735091636447 -13.251834930360255 0 0 0 0 0 0 -10.908858845744652 4.639655394543925 27.99513234878475 -51.69955660137946 46.95119420480955 2.9016402823751073 -4.110732011654191 -1.5776124226548338 15.031270126232773 8.247415848831196 -0.4459959531678363 10.737963204389807 0 0 0 0 0 0 0 0 0 0 0 0 0 0 0 0 0 0 0 0 0 0 0 0 0 0 0 0 0 0 0 0 0 0 0 0 0 0 0 0 0 0 0 0 0 0.5695395769451244 15.14173307267982 -37.50270462908758 54.03730027584378 -11.725469030469974 5.075877739643768 76.69903319912953 35.00661754592803 8.76503969873454 5.484556292048575 1.4617225625165098 1.6651099443828623 0 0 0 0 0 0 0 0 0 0 0 0 0 0 0 0 0 0 0 0 0 0 0 0 0 0 0 0 0 0 0 0 0 0 0 0 0 0 0 0 0 0 0 0 0 8.610126271987827 1.1239146044146993 6.561334712154278 -4.001104426904188 13.065851659069404 0.2731638890901793 10.31725812711395 -3.8834687738798674 -5.172130305577484 0 0 0 2.045804242440483 -6.979551956291778 -0.1380696620276971 8.606413668587967 15.344234843965474 -8.987431835170781 3.7456643743999565 7.205176358150081 2.13069636483031 0 0 0
-0.04568286957082644 -0.10561155358212759 0.08115430785936104 -0.1569379632208253 -7.604006880551461 4.303820343163236 -2.473814507200847 6.097591437785857 4.9850365701971215 1.6336466902928077 8.387770946381908 -27.314102385031855 0 0 0 9.115847782769308 16.135116863226216 -3.642115347076401 13.926243658236695 -3.658790146835107 -13.006198821830067 0 0 0 0 0 0 -10.229077190218499 4.319131509669423 26.702442800591314 -53.403786293171784 46.78709981538804 2.984277602378242 -3.388635992068195 -2.6870023948629207 14.052983231814657 8.57687920127301 -0.4302645003063126 10.506493421861679 0 0 0 0 0 0 0 0 0 0 0 0 0 0 0 0 0 0 0 0 0 0 0 0 0 0 0 0 0 0 0 0 0 0 0 0 0 0 0 0 0 0 0 0 0 -0.558723126655449 15.085317800296925 -38.917200572004916 54.2660903491366 -13.406673403204664 2.6929249228853185 78.74764305868753 34.97638248882454 8.207349210722294 4.895184915851886 1.6395126762564585 0.5340298691630059 0 0 0 0 0 0 0 0 0 0 0 0 0 0 0 0 0 0 0 0 0 0 0 0 0 0 0 0 0 0 0 0 0 0 0 0 0 0 0 0 0 0 0 0 0 8.75971312740114 1.8686449775990557 5.042531281076801 -2.593089115165769 11.957511050479635 0.955269440532233 8.73478209720898 -2.688420151494318 -4.981159932249541 0 0 0 2.377210964166812 -8.950365829584749 -0.9224111084916189 8.540618906410756 19.70511666970448 -9.729009718951541 3.5756279388077754 4.703951130142331 2.1819031025748763 0 0 0
-0.06852430435623967 -0.15720808899482172 0.12173146178904155 -0.23703643783696696 -7.369312555629336 5.8823829389091795 -3.0755472358897284 6.381374524431698 4.015087411376546 1.7410119053410453 6.953285501971193 -29.366592380539483 0 0 0 10.690805278200717 16.87074525357751 -3.3805174082937994 15.072875657646756 -3.4197972556459657 -12.75578780707295 0 0 0 0 0 0 -9.54249041139318 4.013997077714604 25.406544170387328 -55.10321796500529 46.624752269438446 3.073735240391986 -2.6468785987929353 -3.783814012693195 13.059699709609154 8.906274605813314 -0.4132024923017259 10.275117635173313 0 0 0 0 0 0 0 0 0 0 0 0 0 0 0 0 0 0 0 0 0 0 0 0 0 0 0 0 0 0 0 0 0 0 0 0 0 0 0 0 0 0 0 0 0 -1.6848310013617285 15.002048783387057 -40.329813250020514 54.56876442403239 -15.077076793722354 0.2852829795298581 80.79596376843831 34.96249219562258 7.648846066727079 4.302363893932466 1.805628420821114 -0.5989219813408305 0 0 0 0 0 0 0 0 0 0 0 0 0 0 0 0 0 0 0 0 0 0 0 0 0 0 0 0 0 0 0 0 0 0 0 0 0 0 0 0 0 0 0 0 0 8.88956524164372 2.6170760054603956 3.524903759587086 -1.2041229412381802 10.833250028609072 1.6067713728353767 7.157505257465128 -1.4885694078635232 -4.8234189664353515 0 0 0 2.7380562787369906 -10.916452055041923 -1.7230800138112075 8.411031932298215 24.064791422506925 -10.499098281736686 3.4038023986108827 2.2028887327815707 2.2404008559844946 0 0 0
-0.0970105653917623 -0.20450310147529258 0.1722529966910644 1.4814380447148376 -7.286423985938963 7.264659483061883 -3.5878099868468065 6.441648427145025 4.0373607920550425 1.7450900725877108 6.390444086714532 -31.43547834961749 0 0 0 10.982687780655457 17.234091124419876 -2.901091058534311 14.4952020234117 -3.5646812903473117 -11.78803358154216 0 0 0 0 0 0 -9.301793896477513 3.738897557517898 21.856707978737052 -58.3805259527152 45.41080939192934 1.253445002799349 -3.3967941207912404 -6.549151141707999 15.071977668799507 9.311021251016676 -0.6608157621840802 12.998201472555404 0 0 0 0 0 0 0 0 0 0 0 0 0 0 0 0 0 0 0 0 0 0 0 0 0 0 0 0 0 0 0 0 0 0 0 0 0 0 0 0 0 0 0 0 0 -2.543850900083913 14.432786076051116 -39.935687934734254 54.516330016371064 -16.889590629684566 -1.5168387674248125 80.0783173658306 32.17593998875481 7.384586774937973 3.765469162968596 2.3575199139097616 -3.727107287061234 0 0 0 0 0 0 0 0 0 0 0 0 0 0 0 0 0 0 0 0 0 0 0 0 0 0 0 0 0 0 0 0 0 0 0 0 0 0 0 0 0 0 0 0 0 8.310600194503712 2.835170345203298 2.1188721604133445 -0.9719991878041537 10.252055231714497 1.9502095203230536 5.542591035191329 -0.5728282133520018 -4.537939831213342 0 0 0 3.3525574899655717 -11.777128466767609 -3.081247672457114 7.305021913108515 27.146160563101986 -10.725851281514007 2.6637562888470105 -0.056203734713265396 2.478376405220668 0 0 0
